ModelForces
version=1
nRows=4
nColumns=154
inDegrees=no

This file contains the forces exerted on a model during a simulation.

A force is a generalized force, meaning that it can be either a force (N) or a torque (Nm).

Units are S.I. units (second, meters, Newtons, ...)
Angles are in degrees.

endheader
time	glut_med1_r	glut_med2_r	glut_med3_r	glut_min1_r	glut_min2_r	glut_min3_r	semimem_r	semiten_r	bifemlh_r	bifemsh_r	sar_r	add_long_r	add_brev_r	add_mag1_r	add_mag2_r	add_mag3_r	tfl_r	pect_r	grac_r	glut_max1_r	glut_max2_r	glut_max3_r	iliacus_r	psoas_r	quad_fem_r	gem_r	peri_r	rect_fem_r	vas_med_r	vas_int_r	vas_lat_r	med_gas_r	lat_gas_r	soleus_r	tib_post_r	flex_dig_r	flex_hal_r	tib_ant_r	per_brev_r	per_long_r	per_tert_r	ext_dig_r	ext_hal_r	glut_med1_l	glut_med2_l	glut_med3_l	glut_min1_l	glut_min2_l	glut_min3_l	semimem_l	semiten_l	bifemlh_l	bifemsh_l	sar_l	add_long_l	add_brev_l	add_mag1_l	add_mag2_l	add_mag3_l	tfl_l	pect_l	grac_l	glut_max1_l	glut_max2_l	glut_max3_l	iliacus_l	psoas_l	quad_fem_l	gem_l	peri_l	rect_fem_l	vas_med_l	vas_int_l	vas_lat_l	med_gas_l	lat_gas_l	soleus_l	tib_post_l	flex_dig_l	flex_hal_l	tib_ant_l	per_brev_l	per_long_l	per_tert_l	ext_dig_l	ext_hal_l	ercspn_r	ercspn_l	intobl_r	intobl_l	extobl_r	extobl_l	contactForce_femur_lat_meniscii_l.femur_lat_l.force.X	contactForce_femur_lat_meniscii_l.femur_lat_l.force.Y	contactForce_femur_lat_meniscii_l.femur_lat_l.force.Z	contactForce_femur_lat_meniscii_l.femur_lat_l.torque.X	contactForce_femur_lat_meniscii_l.femur_lat_l.torque.Y	contactForce_femur_lat_meniscii_l.femur_lat_l.torque.Z	contactForce_femur_lat_meniscii_l.meniscus_lat_l.force.X	contactForce_femur_lat_meniscii_l.meniscus_lat_l.force.Y	contactForce_femur_lat_meniscii_l.meniscus_lat_l.force.Z	contactForce_femur_lat_meniscii_l.meniscus_lat_l.torque.X	contactForce_femur_lat_meniscii_l.meniscus_lat_l.torque.Y	contactForce_femur_lat_meniscii_l.meniscus_lat_l.torque.Z	contactForce_femur_med_meniscii_l.femur_med_l.force.X	contactForce_femur_med_meniscii_l.femur_med_l.force.Y	contactForce_femur_med_meniscii_l.femur_med_l.force.Z	contactForce_femur_med_meniscii_l.femur_med_l.torque.X	contactForce_femur_med_meniscii_l.femur_med_l.torque.Y	contactForce_femur_med_meniscii_l.femur_med_l.torque.Z	contactForce_femur_med_meniscii_l.meniscus_med_l.force.X	contactForce_femur_med_meniscii_l.meniscus_med_l.force.Y	contactForce_femur_med_meniscii_l.meniscus_med_l.force.Z	contactForce_femur_med_meniscii_l.meniscus_med_l.torque.X	contactForce_femur_med_meniscii_l.meniscus_med_l.torque.Y	contactForce_femur_med_meniscii_l.meniscus_med_l.torque.Z	contactForce_femur_lat_meniscii_r.femur_lat_r.force.X	contactForce_femur_lat_meniscii_r.femur_lat_r.force.Y	contactForce_femur_lat_meniscii_r.femur_lat_r.force.Z	contactForce_femur_lat_meniscii_r.femur_lat_r.torque.X	contactForce_femur_lat_meniscii_r.femur_lat_r.torque.Y	contactForce_femur_lat_meniscii_r.femur_lat_r.torque.Z	contactForce_femur_lat_meniscii_r.meniscus_lat_r.force.X	contactForce_femur_lat_meniscii_r.meniscus_lat_r.force.Y	contactForce_femur_lat_meniscii_r.meniscus_lat_r.force.Z	contactForce_femur_lat_meniscii_r.meniscus_lat_r.torque.X	contactForce_femur_lat_meniscii_r.meniscus_lat_r.torque.Y	contactForce_femur_lat_meniscii_r.meniscus_lat_r.torque.Z	contactForce_femur_med_meniscii_r.femur_med_r.force.X	contactForce_femur_med_meniscii_r.femur_med_r.force.Y	contactForce_femur_med_meniscii_r.femur_med_r.force.Z	contactForce_femur_med_meniscii_r.femur_med_r.torque.X	contactForce_femur_med_meniscii_r.femur_med_r.torque.Y	contactForce_femur_med_meniscii_r.femur_med_r.torque.Z	contactForce_femur_med_meniscii_r.meniscus_med_r.force.X	contactForce_femur_med_meniscii_r.meniscus_med_r.force.Y	contactForce_femur_med_meniscii_r.meniscus_med_r.force.Z	contactForce_femur_med_meniscii_r.meniscus_med_r.torque.X	contactForce_femur_med_meniscii_r.meniscus_med_r.torque.Y	contactForce_femur_med_meniscii_r.meniscus_med_r.torque.Z	aACL_R	pACL_R	aPCL_R	pPCL_R	aMCL_R	aLCL_R	aPCL_L	pPCL_L	aMCL_L	aLCL_L	ground_prescribedForce_fx	ground_prescribedForce_fy	ground_prescribedForce_fz
      0.69145217	      7.54980914	      5.66703381	      6.06610382	      2.65951049	      3.17956803	      3.19352630	      6.09684759	      4.01279743	      5.78731879	      6.62242339	      1.50643449	      5.61456458	      4.14194826	      2.91957867	      2.45428626	      3.98846265	      4.25985799	      2.23920082	      1.52239854	      3.65689970	      5.55726213	      4.14837321	     22.64992600	     12.96946704	      3.62747529	      2.85469198	      4.09164644	     10.43774665	      7.66369300	      7.48569527	      8.94214482	      1.24859114	      1.51932914	      7.99464889	     15.47756288	      3.13646352	      3.22548837	     18.57902759	      3.87578525	      7.96447501	     12.71714685	     10.76577766	      2.36574348	      8.79278001	      4.97975919	      4.35274873	      0.00000000	      5.36346858	      2.46558376	      7.67412075	      3.89493253	      7.11404527	      6.90717221	      1.47627834	      6.47796004	      4.69430383	      3.21923852	      2.71427204	      4.35670639	      5.91249167	      2.43480311	      1.54856214	      3.19242793	      4.97248160	      3.75647067	     26.68693388	     15.36009789	      2.30798388	      0.80018786	      1.62492052	     11.92776966	      7.43237585	      8.92898576	      9.85206851	      3.63756146	      2.09828059	      5.25529460	     13.36670849	      2.54594702	      3.09969594	     22.63950508	      4.07695315	      8.37923953	     14.75727199	     13.38153931	      2.78152083	     25.01200750	     25.01200750	      9.00227421	      9.00227421	     26.80665189	     26.80665189	     -0.15806770	      2.94329977	     -0.41774834	      0.20630793	     -0.00217109	     -0.08388868	      0.15806770	     -2.94329977	      0.41774834	     -0.09901501	     -0.00393575	      0.00026465	     -3.28384621	     17.63688921	     -3.78053862	      0.97865466	     -0.08058680	     -1.16282914	      3.28384621	    -17.63688921	      3.78053862	      0.15528452	     -0.00823940	     -0.23652162	     15.64776365	     29.82853048	     -4.84876008	      1.20126579	      0.43025502	      6.46984454	    -15.64776365	    -29.82853048	      4.84876008	      0.81715530	     -0.48585950	     -0.29812734	     86.91854955	     75.17172386	     10.92224676	     -2.90808904	     -1.86010356	     35.79282506	    -86.91854955	    -75.17172386	    -10.92224676	     -0.85615936	      1.31393867	     -2.07822628	      0.00000000	      0.00000000	    112.09685932	      0.00000000	      0.00000000	      0.00000000	      0.00000000	      0.00000000	      0.00000000	     -1.59353266	      0.00000000	    138.29043490	      0.00000000
      0.69190683	      7.54978411	      5.66701657	      6.06608513	      2.65950274	      3.17955964	      3.19351573	      6.08725977	      4.00953689	      5.79080725	      6.62748212	      1.50637329	      5.61454729	      4.14193630	      2.91956985	      2.45427867	      3.98844898	      4.25993548	      2.23919425	      1.52232574	      3.65688857	      5.55724518	      4.14836033	     22.64989473	     12.96943188	      3.62746449	      2.85468693	      4.09162613	     10.43877903	      7.66543992	      7.49187771	      8.95424056	      1.24835510	      1.52175136	      7.99972051	     15.47250240	      3.13636189	      3.22028716	     18.57597426	      3.87780134	      7.96971028	     12.71587779	     10.76373968	      2.36900728	      8.78753397	      4.98003996	      4.35326374	      0.00000000	      5.36287495	      2.46570739	      7.67657457	      3.89607901	      7.11516211	      6.90716050	      1.47640676	      6.47816229	      4.69361213	      3.21960112	      2.71463363	      4.35727671	      5.91135883	      2.43473977	      1.54878197	      3.19257365	      4.97276887	      3.75702400	     26.68739792	     15.35995984	      2.30740671	      0.80056553	      1.62542272	     11.92442539	      7.43261779	      8.92795956	      9.85072172	      3.63590645	      2.09686713	      5.25188589	     13.35344689	      2.54979829	      3.09232288	     22.64076209	      4.08103606	      8.38528961	     14.76198614	     13.35833922	      2.78334771	     25.01193444	     25.01193444	      9.00224557	      9.00224557	     26.80662617	     26.80662617	     -0.14880704	      2.90395186	     -0.42026735	      0.20689344	     -0.00230085	     -0.07989616	      0.14880704	     -2.90395186	      0.42026735	     -0.09786047	     -0.00365430	      0.00014134	     -3.29415551	     17.66918181	     -3.77048134	      0.97387851	     -0.08084933	     -1.16641055	      3.29415551	    -17.66918181	      3.77048134	      0.15597049	     -0.00801368	     -0.23713305	     15.66323588	     29.79326145	     -4.85742329	      1.20589139	      0.43073293	      6.47662194	    -15.66323588	    -29.79326145	      4.85742329	      0.81555985	     -0.48632824	     -0.29925170	     87.06744211	     75.38147464	     10.93745467	     -2.90932933	     -1.86393312	     35.85411027	    -87.06744211	    -75.38147464	    -10.93745467	     -0.85976692	      1.31709567	     -2.08144615	      0.00000000	      0.00000000	    112.17946329	      0.00000000	      0.00000000	      0.00000000	      0.00000000	      0.00000000	      0.00000000	     -1.59412440	      0.00000000	    138.38136544	      0.00000000
      0.69278596	      7.54973612	      5.66698350	      6.06604930	      2.65948787	      3.17954357	      3.19349548	      6.06997378	      4.00403947	      5.79851999	      6.63848906	      1.50641810	      5.61451415	      4.14191337	      2.91955294	      2.45426411	      3.98842277	      4.26048858	      2.23918166	      1.52234677	      3.65686726	      5.55721268	      4.14833563	     22.64983478	     12.96936449	      3.62744378	      2.85467724	      4.09158717	     10.44234228	      7.67058761	      7.50576976	      8.97971546	      1.24843890	      1.52716022	      8.01022172	     15.46332663	      3.13629368	      3.21029531	     18.56937615	      3.88172413	      7.97988430	     12.71320487	     10.75947976	      2.37522259	      8.77772206	      4.98059715	      4.35444913	      0.00000000	      5.36141323	      2.46597832	      7.68158763	      3.89836262	      7.11730647	      6.90737225	      1.47666794	      6.47850407	      4.69311050	      3.22032027	      2.71529602	      4.35832776	      5.90917722	      2.43467110	      1.54922295	      3.19287444	      4.97333746	      3.75807940	     26.68832173	     15.35970607	      2.30740490	      0.80131752	      1.62637908	     11.91787863	      7.43303230	      8.92574545	      9.84775907	      3.63280523	      2.09413703	      5.24531171	     13.32720585	      2.55738461	      3.07795627	     22.64306953	      4.08902434	      8.39718290	     14.77115006	     13.31298061	      2.78690490	     25.01179436	     25.01179436	      9.00219067	      9.00219067	     26.80657685	     26.80657685	     -0.13117985	      2.83138196	     -0.40835922	      0.20092632	     -0.00243987	     -0.07233435	      0.13117985	     -2.83138196	      0.40835922	     -0.09504693	     -0.00309779	     -0.00007365	     -3.25070782	     17.72523298	     -3.69095862	      0.93946223	     -0.07988984	     -1.14650577	      3.25070782	    -17.72523298	      3.69095862	      0.15950204	     -0.00743282	     -0.24072903	     15.66767718	     29.72716056	     -4.91508699	      1.23197230	      0.43067455	      6.47886205	    -15.66767718	    -29.72716056	      4.91508699	      0.81099891	     -0.48585669	     -0.30029287	     87.20449319	     75.78854313	     10.78272791	     -2.83432940	     -1.86865640	     35.90953511	    -87.20449319	    -75.78854313	    -10.78272791	     -0.87371073	      1.32250098	     -2.08228039	      0.00000000	      0.00000000	    112.34708237	      0.00000000	      0.00000000	      0.00000000	      0.00000000	      0.00000000	      0.00000000	     -1.38934046	      0.00000000	    138.55719238	      0.00000000
      0.69366510	      7.54968867	      5.66695080	      6.06601387	      2.65947318	      3.17952768	      3.19347545	      6.05442846	      3.99979268	      5.80753960	      6.65113192	      1.50660067	      5.61448138	      4.14189069	      2.91953622	      2.45424972	      3.98839686	      4.26162745	      2.23916921	      1.52254928	      3.65684618	      5.55718055	      4.14831120	     22.64977551	     12.96929786	      3.62742330	      2.85466766	      4.09154866	     10.44800364	      7.67793575	      7.52212865	      9.00782768	      1.24893637	      1.53353318	      8.02136500	     15.45497341	      3.13639430	      3.20039165	     18.56199043	      3.88564863	      7.99009266	     12.71026503	     10.75483922	      2.38131962	      8.75728078	      4.98115629	      4.36344614	      0.00000000	      5.35358017	      2.46634874	      7.68666125	      3.90058701	      7.11929891	      6.90992962	      1.47685758	      6.48085763	      4.69975970	      3.22511202	      2.71712985	      4.35930080	      5.90754893	      2.43658043	      1.54960270	      3.19424361	      4.97519937	      3.76185661	     26.68839805	     15.35932562	      2.32644969	      0.80627457	      1.63015669	     11.91084842	      7.43256372	      8.92278547	      9.84387015	      3.62808611	      2.09198502	      5.23869226	     13.30023841	      2.56514293	      3.06343894	     22.64530392	      4.09709483	      8.40928847	     14.78032426	     13.26704895	      2.79052316	     25.01165586	     25.01165586	      9.00213638	      9.00213638	     26.80652809	     26.80652809	     -0.11591896	      2.75481366	     -0.41611048	      0.20331864	     -0.00267080	     -0.06568524	      0.11591896	     -2.75481366	      0.41611048	     -0.09296906	     -0.00264597	     -0.00025472	     -3.27163894	     17.76542471	     -3.69421521	      0.94072745	     -0.08017145	     -1.15411105	      3.27163894	    -17.76542471	      3.69421521	      0.15946413	     -0.00741620	     -0.24143876	     15.63801905	     29.63686587	     -4.94198750	      1.24577255	      0.42980758	      6.46694419	    -15.63801905	    -29.63686587	      4.94198750	      0.80682285	     -0.48458394	     -0.30037125	     87.41212623	     76.01455722	     10.86848269	     -2.86511003	     -1.87350768	     35.99462816	    -87.41212623	    -76.01455722	    -10.86848269	     -0.87484380	      1.32613894	     -2.08692283	      0.00000000	      0.00000000	    112.51764097	      0.00000000	      0.00000000	      0.00000000	      0.00000000	      0.00000000	      0.00000000	     -1.46476077	      0.00000000	    138.73301931	      0.00000000
